<svg width="120" height="61" viewBox="0 0 120 61" fill="none" xmlns="http://www.w3.org/2000/svg">
<g id="logo">
<g id="logo_2">
<path id="Vector" d="M3.96862 38.0087C11.1107 35.0043 14.8087 35.3928 18.6496 39.2532C20.403 41.1024 21.5763 43.4237 22.0247 45.931C22.4731 48.4383 22.1771 51.0219 21.1731 53.3631C20.2957 55.6377 18.6792 57.5522 16.5827 58.7998C14.4862 60.0474 12.0311 60.5559 9.61088 60.2437C5.15103 59.7205 0.556282 55.7333 0.310276 51.0009C-0.142057 42.3209 0.0483991 33.6013 0.000785147 24.8975C0.000785147 23.6213 0.532475 22.464 2.04025 22.6146C3.41312 22.7097 3.96862 23.8353 3.96862 25.1353C4.01623 29.3842 3.96862 33.633 3.96862 38.0087Z" fill="white"/>
<path id="Vector_2" d="M46.7577 44.9051C46.7577 46.4905 46.7577 48.0283 46.7577 49.5899C46.5673 55.7729 42.1788 60.2595 36.1715 60.4419C33.3273 60.5898 30.5388 59.6146 28.4083 57.7266C26.2777 55.8386 24.9758 53.1894 24.7839 50.3509C24.4823 46.4746 24.7124 42.5508 24.7045 38.6428C24.7045 37.1922 25.133 35.9397 26.8313 35.9794C28.5295 36.019 28.7279 37.4617 28.7358 38.8172C28.7358 42.202 28.6644 45.5868 28.7358 48.9716C28.8866 53.6643 31.7831 56.5973 35.9652 56.4784C40.0124 56.3674 42.6312 53.482 42.7105 48.932C42.7661 45.5472 42.7105 42.1624 42.7105 38.7776C42.7105 37.3586 42.9486 36.019 44.6706 35.9714C46.3927 35.9239 46.7101 37.2714 46.7022 38.6904L46.7577 44.9051Z" fill="white"/>
<path id="Vector_3" d="M97.8714 51.5875C97.7603 47.0295 97.4111 42.4636 101.315 38.9044C104.641 35.8842 108.386 35.0361 112.552 36.5263C114.568 37.1433 116.346 38.3621 117.647 40.0189C118.948 41.6756 119.709 43.6907 119.829 45.7929C120.163 49.6692 119.901 53.5851 119.925 57.4851C119.925 58.9199 119.615 60.2437 117.925 60.2675C116.235 60.2912 115.981 58.8644 115.973 57.4851C115.973 54.3698 115.973 51.2466 115.973 48.1313C115.917 43.2087 113.171 39.9825 109.013 39.9032C104.855 39.8239 101.982 42.9392 101.871 47.9173C101.823 50.9058 101.871 53.8942 101.871 56.8827C101.871 58.4126 102.133 60.3309 99.7601 60.2595C97.6968 60.2041 97.8873 58.4681 97.8714 57.0491C97.8555 55.2101 97.8714 53.4107 97.8714 51.5875Z" fill="#F49C31"/>
<path id="Vector_4" d="M60.7801 40.0855H51.7414C50.5669 40.0855 49.5987 39.6654 49.5352 38.3812C49.4852 38.0866 49.5029 37.7845 49.5868 37.4976C49.6707 37.2108 49.8187 36.9467 50.0197 36.7254C50.2207 36.504 50.4694 36.3311 50.747 36.2197C51.0246 36.1084 51.3239 36.0614 51.6223 36.0824C55.8203 36.0269 60.0262 35.908 64.2162 36.13C66.835 36.2647 67.1524 37.9452 65.8589 39.9666C63.3988 43.8191 60.8832 47.624 58.4391 51.4765C57.4868 52.9826 56.2329 54.3381 55.7409 56.6052C58.6454 56.6052 61.3673 56.5656 64.0893 56.6052C65.3272 56.6052 66.5493 56.9699 66.5176 58.5394C66.4858 60.1089 65.351 60.4577 64.0654 60.4656C60.0976 60.4656 56.1853 60.537 52.2492 60.4656C49.2734 60.4022 48.9401 58.8803 50.3605 56.6211C53.0111 52.4515 55.7092 48.2899 58.3676 44.1124C59.058 43.0343 59.685 41.9166 60.7801 40.0855Z" fill="white"/>
<path id="Vector_5" d="M74.7707 56.5894C78.1116 56.5894 80.8256 56.5418 83.4999 56.5894C84.841 56.5894 86.2853 56.8747 86.1425 58.7059C86.0155 60.212 84.7537 60.4498 83.5237 60.4577C79.5559 60.4577 75.6594 60.5528 71.7313 60.4577C68.7395 60.3705 68.5015 58.8723 69.9696 56.5973C73.3422 51.3655 76.6673 46.0941 80.1907 40.5532C77.2069 39.7209 74.4929 40.2282 71.8265 40.1014C70.4219 40.0379 69.0094 39.8873 69.0808 38.1276C69.1522 36.5422 70.3267 36.019 71.8424 36.0349C75.5166 36.0349 79.1829 35.9635 82.8492 36.0349C86.3488 36.122 87.0392 37.4538 85.1664 40.3947C81.8731 45.6502 78.4845 50.8424 74.7707 56.5894Z" fill="white"/>
<path id="Vector_6" d="M94.9352 21.917C94.9113 22.3024 94.82 22.6807 94.6654 23.0347C94.3162 23.5737 94.1257 23.2091 93.9988 22.8207C92.0942 16.82 98.6649 3.23323 104.633 0.926492C107.212 -0.0643739 109.211 0.672831 110.529 3.12225C111.219 4.70764 111.275 6.05521 109.386 6.9351C102.868 9.95525 97.7143 15.2984 94.9352 21.917Z" fill="white"/>
<path id="Vector_7" d="M89.9913 48.0759V39.0867C89.9913 37.6995 90.2373 36.2806 91.9117 36.2013C93.5861 36.1221 93.9908 37.4696 93.9988 38.8965V57.6437C93.9988 59.0784 93.6655 60.3705 91.9038 60.2913C90.142 60.212 89.9992 58.8089 89.9992 57.4455C89.9913 54.3223 89.9913 51.1911 89.9913 48.0759Z" fill="#F49C31"/>
<path id="Vector_8" d="M112.164 6.36436C118.322 6.18997 120.187 8.68695 117.719 14.212C116.323 17.3992 114.26 20.2509 111.669 22.5753C109.078 24.8997 106.018 26.6429 102.696 27.6878C98.0222 29.2732 95.8796 27.6165 95.5542 22.6463C96.2843 15.195 104.887 6.77656 112.164 6.36436Z" fill="#F49C31"/>
<path id="Vector_9" d="M94.9748 30.2086C94.9474 31.0495 94.5868 31.8451 93.9721 32.4205C93.3575 32.9958 92.5392 33.3036 91.6974 33.2763C90.8555 33.249 90.059 32.8887 89.483 32.2747C88.9071 31.6608 88.5989 30.8434 88.6263 30.0025C88.6036 29.576 88.6756 29.1497 88.8369 28.7542C88.9982 28.3587 89.245 28.0036 89.5596 27.7144C89.8742 27.4251 90.2488 27.2088 90.6568 27.0809C91.0647 26.953 91.4959 26.9166 91.9196 26.9744C93.9194 27.0457 94.9589 28.1951 94.9748 30.2086Z" fill="white"/>
<path id="Vector_10" d="M10.96 40.2916C14.8484 40.2361 18.1021 43.6526 18.2846 47.9094C18.4671 52.1662 15.0786 56.1296 11.1901 56.1851C7.30162 56.2406 4.12736 52.8954 4.048 48.5198C3.92103 43.8032 6.83342 40.3471 10.96 40.2916Z" fill="#202A39"/>
</g>
</g>
</svg>
